# Blender v2.77 (sub 0) OBJ File: ''
# www.blender.org
mtllib club_collision_hull.mtl
o putter_vr_ACD.002
v 0.000784 0.057052 0.012917
v -0.000093 0.071754 0.017966
v 0.000345 0.071754 0.017966
v -0.000093 0.052439 0.015332
v -0.001410 0.072195 0.015770
v 0.001663 0.072852 0.016209
v 0.001663 0.054197 0.014673
v -0.001410 0.054199 0.013795
v -0.000532 0.073950 0.015112
v -0.001410 0.073071 0.017088
v -0.000532 0.052882 0.012697
v -0.000971 0.055076 0.015551
v 0.001223 0.074169 0.017526
v 0.001443 0.053539 0.013137
v 0.001004 0.073291 0.015112
v 0.001004 0.055297 0.015770
v -0.000752 0.056393 0.012917
v 0.001443 0.071316 0.017307
v -0.001191 0.052663 0.014673
v -0.000313 0.074389 0.017746
v 0.001443 0.052439 0.014454
v 0.000126 0.071973 0.014673
v -0.000313 0.055954 0.015990
v -0.000752 0.071316 0.017746
v 0.001663 0.055514 0.013575
v 0.000565 0.074827 0.015990
v -0.001191 0.074169 0.015990
v 0.001443 0.072195 0.015332
v 0.000784 0.052663 0.012697
v -0.001410 0.054199 0.014673
v -0.000093 0.055954 0.012697
v -0.000752 0.072414 0.014893
vn -0.1827 0.1228 -0.9755
vn -1.0000 0.0000 0.0000
vn -0.8606 0.0556 -0.5062
vn -0.7872 -0.0107 -0.6166
vn 0.9841 -0.0146 0.1768
vn 0.5065 -0.0271 0.8618
vn 0.9620 0.0536 0.2678
vn 0.4835 -0.0967 0.8700
vn 0.8187 -0.0770 0.5691
vn -0.8889 -0.3162 -0.3315
vn -0.5352 -0.2453 0.8083
vn 0.0000 0.0832 0.9965
vn 0.1577 0.1212 0.9800
vn 0.9893 -0.1121 -0.0937
vn 0.4722 -0.3078 0.8260
vn 0.7579 -0.1732 0.6290
vn 0.2880 0.1244 -0.9495
vn 0.1070 0.2493 -0.9625
vn 0.0000 -0.1241 0.9923
vn -0.3527 -0.1935 0.9155
vn 0.1012 -0.1276 0.9867
vn 0.0746 -0.1790 0.9810
vn -0.7936 -0.0710 0.6043
vn -0.3456 0.0494 0.9371
vn -0.5844 0.0835 0.8071
vn -0.2436 -0.1170 0.9628
vn -0.4412 -0.1144 0.8901
vn 1.0000 0.0000 0.0000
vn 0.6868 0.0836 -0.7220
vn 0.9907 -0.0872 -0.1046
vn 0.8688 0.4638 -0.1735
vn 0.2280 0.5315 -0.8158
vn 0.8395 0.4299 -0.3323
vn 0.1792 0.9298 0.3215
vn -0.3503 0.9348 0.0580
vn -0.9898 0.1186 -0.0788
vn -0.7995 0.4969 0.3375
vn -0.3142 0.8386 -0.4450
vn 0.6271 0.0960 -0.7730
vn 0.8697 0.2648 -0.4165
vn 0.9614 0.0413 -0.2721
vn 0.6881 0.0850 -0.7206
vn 0.5147 0.0429 -0.8563
vn -0.1255 -0.9841 -0.1254
vn -0.1620 -0.9734 -0.1619
vn -0.0596 -0.9928 -0.1042
vn 0.8229 -0.4361 -0.3642
vn -0.8658 -0.0635 0.4963
vn -0.9900 -0.1412 0.0000
vn -0.8354 -0.1191 0.5366
vn -0.2913 0.0416 -0.9557
vn 0.0969 0.1205 -0.9880
vn 0.1846 0.0492 -0.9816
vn 0.0000 0.0000 -1.0000
vn -0.8064 0.0724 -0.5869
vn -0.1625 0.1620 -0.9733
vn -0.8084 0.1530 -0.5683
vn -0.7598 0.1972 -0.6195
vn -0.2423 0.1188 -0.9629
usemtl Shape.002
s off
f 22//1 31//1 32//1
f 5//2 8//2 10//2
f 8//3 5//3 17//3
f 11//4 8//4 17//4
f 7//5 6//5 18//5
f 13//6 3//6 18//6
f 6//7 13//7 18//7
f 3//8 16//8 18//8
f 16//9 7//9 18//9
f 8//10 11//10 19//10
f 4//11 12//11 19//11
f 2//12 3//12 20//12
f 3//13 13//13 20//13
f 14//14 7//14 21//14
f 16//15 4//15 21//15
f 7//16 16//16 21//16
f 15//17 1//17 22//17
f 9//18 15//18 22//18
f 3//19 2//19 23//19
f 12//20 4//20 23//20
f 16//21 3//21 23//21
f 4//22 16//22 23//22
f 10//23 12//23 24//23
f 2//24 20//24 24//24
f 20//25 10//25 24//25
f 23//26 2//26 24//26
f 12//27 23//27 24//27
f 6//28 7//28 25//28
f 14//29 1//29 25//29
f 7//30 14//30 25//30
f 13//31 6//31 26//31
f 15//32 9//32 26//32
f 6//33 15//33 26//33
f 20//34 13//34 26//34
f 20//35 26//35 27//35
f 5//36 10//36 27//36
f 10//37 20//37 27//37
f 26//38 9//38 27//38
f 1//39 15//39 28//39
f 15//40 6//40 28//40
f 6//41 25//41 28//41
f 25//42 1//42 28//42
f 1//43 14//43 29//43
f 4//44 19//44 29//44
f 19//45 11//45 29//45
f 21//46 4//46 29//46
f 14//47 21//47 29//47
f 10//2 8//2 30//2
f 12//48 10//48 30//48
f 8//49 19//49 30//49
f 19//50 12//50 30//50
f 11//51 17//51 31//51
f 22//52 1//52 31//52
f 1//53 29//53 31//53
f 29//54 11//54 31//54
f 17//55 5//55 32//55
f 9//56 22//56 32//56
f 5//57 27//57 32//57
f 27//58 9//58 32//58
f 31//59 17//59 32//59
o putter_vr_ACD.001
v -0.000532 0.011393 0.007430
v -0.000093 0.051776 0.014673
v 0.000565 0.051776 0.014673
v 0.000346 0.052210 0.012916
v 0.001004 0.003932 0.007648
v 0.001004 0.004590 0.006331
v -0.000313 0.004805 0.007868
v 0.001004 0.052439 0.013355
v -0.000532 0.052210 0.013136
v -0.000093 0.004146 0.006111
v -0.000532 0.051776 0.014453
v 0.001004 0.051113 0.014234
v -0.000532 0.003703 0.007430
v 0.000565 0.003932 0.007868
v 0.000785 0.004146 0.006111
v 0.000785 0.050016 0.012697
v -0.000093 0.035313 0.010501
v -0.000093 0.003932 0.007868
v -0.000313 0.005244 0.006331
v -0.000313 0.051995 0.014673
v 0.000346 0.004590 0.006111
v -0.000532 0.003703 0.006550
v -0.000313 0.051776 0.012916
v 0.000785 0.036844 0.012477
v -0.000093 0.043876 0.013575
v 0.000565 0.052439 0.014673
v 0.001004 0.003703 0.006331
v -0.000532 0.052439 0.014453
v 0.000785 0.015124 0.009406
v 0.001004 0.045412 0.012258
v -0.000093 0.005902 0.006331
v 0.000785 0.050898 0.014453
vn 0.6736 -0.1029 0.7319
vn 1.0000 0.0000 0.0000
vn -0.0885 0.9314 -0.3532
vn -1.0000 -0.0000 0.0000
vn -0.7813 -0.0902 0.6176
vn 0.1125 -0.9680 0.2244
vn 0.5002 0.1845 -0.8460
vn 0.5769 0.1161 -0.8085
vn 0.2116 0.1389 -0.9674
vn -0.6524 -0.1644 0.7398
vn 0.0000 -0.8862 0.4633
vn -0.7346 0.0939 -0.6720
vn 0.0000 0.0000 1.0000
vn -0.6483 -0.1087 0.7536
vn -0.4928 -0.1242 0.8612
vn 0.1416 0.1400 -0.9800
vn 0.0000 0.0000 -1.0000
vn 0.0009 0.1415 -0.9899
vn -0.8734 0.0554 -0.4838
vn -0.7071 -0.0000 -0.7071
vn -0.2280 0.3463 -0.9100
vn -0.0943 0.1433 -0.9852
vn -0.5827 0.1139 -0.8047
vn 0.0000 -0.1377 0.9905
vn 0.0386 -0.1407 0.9893
vn 0.0000 -0.1414 0.9899
vn -0.1358 -0.1364 0.9813
vn -0.2687 -0.1362 0.9535
vn 0.7071 0.0000 0.7071
vn 0.9286 0.2050 0.3093
vn 0.1217 -0.9779 0.1700
vn 0.7087 0.0000 -0.7055
vn 0.0000 -0.4448 -0.8956
vn 0.0000 -1.0000 0.0000
vn -0.1080 -0.6437 -0.7576
vn -0.1216 0.9779 -0.1700
vn -0.7087 0.0000 0.7055
vn 0.0000 1.0000 0.0000
vn -0.1833 0.3624 0.9138
vn 0.2356 -0.1369 0.9622
vn 0.4442 -0.1305 0.8864
vn 0.3564 -0.1308 0.9251
vn 0.6217 -0.1097 0.7755
vn 0.7838 0.0958 -0.6136
vn 0.7198 0.0997 -0.6870
vn -0.3485 0.1165 -0.9300
vn -0.1247 0.1233 -0.9845
vn -0.0764 0.1400 -0.9872
vn -0.3418 0.1319 -0.9305
vn -0.3865 0.1292 -0.9132
vn 0.7477 -0.0918 0.6576
vn 0.3986 -0.1277 0.9082
usemtl Shape.001
s off
f 56//60 37//60 64//60
f 37//61 38//61 40//61
f 40//62 36//62 41//62
f 41//63 33//63 43//63
f 37//61 40//61 44//61
f 43//63 33//63 45//63
f 39//64 43//64 45//64
f 45//65 37//65 46//65
f 36//66 40//66 48//66
f 38//67 47//67 48//67
f 47//68 36//68 48//68
f 39//69 45//69 50//69
f 45//70 46//70 50//70
f 33//71 41//71 51//71
f 34//72 35//72 52//72
f 43//73 39//73 52//73
f 39//74 50//74 52//74
f 36//75 47//75 53//75
f 47//76 42//76 53//76
f 49//77 36//77 53//77
f 45//63 33//63 54//63
f 33//78 51//78 54//78
f 51//79 42//79 54//79
f 41//80 36//80 55//80
f 36//81 49//81 55//81
f 51//82 41//82 55//82
f 35//83 34//83 57//83
f 46//84 35//84 57//84
f 50//85 46//85 57//85
f 34//86 52//86 57//86
f 52//87 50//87 57//87
f 35//88 44//88 58//88
f 44//89 40//89 58//89
f 52//72 35//72 58//72
f 38//61 37//61 59//61
f 37//90 45//90 59//90
f 47//91 38//91 59//91
f 42//92 47//92 59//92
f 45//93 54//93 59//93
f 54//94 42//94 59//94
f 40//95 41//95 60//95
f 41//63 43//63 60//63
f 43//96 52//96 60//96
f 58//97 40//97 60//97
f 52//98 58//98 60//98
f 35//99 46//99 61//99
f 46//100 37//100 61//100
f 56//101 35//101 61//101
f 37//102 56//102 61//102
f 40//61 38//61 62//61
f 48//103 40//103 62//103
f 38//104 48//104 62//104
f 42//105 51//105 63//105
f 53//106 42//106 63//106
f 49//107 53//107 63//107
f 55//108 49//108 63//108
f 51//109 55//109 63//109
f 44//88 35//88 64//88
f 37//110 44//110 64//110
f 35//111 56//111 64//111
o putter_vr_ACD
v 0.001662 -0.001346 -0.001790
v 0.000565 0.003702 0.005232
v 0.000345 0.003702 0.005232
v 0.001223 -0.001346 0.011159
v -0.001410 -0.001126 -0.007936
v -0.001410 0.001727 0.010938
v -0.000752 0.002385 -0.009256
v 0.001662 0.002166 -0.008596
v 0.001662 0.002166 0.010721
v -0.001191 -0.001346 0.010721
v 0.001223 -0.001346 -0.009256
v -0.001410 0.002166 -0.007496
v -0.000752 0.003702 0.007648
v 0.001223 0.003702 0.007648
v -0.000752 -0.000248 -0.010354
v 0.001662 -0.001126 0.010938
v 0.001662 0.000849 -0.009692
v -0.000971 -0.001346 -0.009036
v -0.000971 0.001946 0.011378
v -0.001410 -0.000907 0.010938
v 0.001443 0.002385 -0.008815
v 0.001223 -0.000687 0.011600
v 0.001662 -0.000687 -0.009692
v -0.001410 0.000191 -0.009692
v 0.000565 0.000630 -0.010354
v -0.000752 -0.000907 0.011600
v 0.001223 0.002166 0.011159
v -0.001410 0.002166 0.009182
v -0.000752 0.003702 0.005671
v -0.001191 0.002385 -0.008815
v 0.001443 0.003263 0.005671
v -0.000093 0.003702 0.008086
vn -0.0428 0.8862 0.4613
vn 0.0000 0.9959 -0.0905
vn 1.0000 0.0000 0.0000
vn 0.0000 -1.0000 0.0000
vn -1.0000 0.0000 0.0000
vn 0.0000 1.0000 0.0000
vn 0.4542 -0.8908 0.0154
vn -0.4582 -0.8888 -0.0051
vn -0.0647 -0.7614 -0.6451
vn -0.6459 0.7046 0.2938
vn -0.8938 -0.4485 0.0052
vn 0.0185 0.9956 -0.0922
vn 0.2689 0.9604 -0.0732
vn 0.7285 0.6836 -0.0449
vn 0.8154 0.3703 -0.4450
vn 0.5719 -0.4562 0.6818
vn 0.8435 0.0353 0.5359
vn 0.8163 -0.5756 -0.0480
vn 0.1090 -0.5980 -0.7941
vn -0.5576 0.3195 -0.7661
vn -0.8854 -0.3719 -0.2790
vn -0.7671 -0.4244 -0.4810
vn -0.2485 0.3728 -0.8940
vn 0.1567 0.6057 -0.7801
vn 0.3723 0.4997 -0.7822
vn 0.2008 -0.3013 -0.9322
vn 0.5167 0.0000 -0.8562
vn -0.0870 -0.8732 0.4796
vn -0.7081 0.0006 0.7062
vn -0.7092 0.0000 0.7050
vn -0.5804 -0.5747 0.5769
vn 0.0618 -0.5551 0.8295
vn -0.0086 0.0769 0.9970
vn 0.3713 0.8507 0.3722
vn 0.7021 0.1088 0.7037
vn 0.0830 0.1522 0.9848
vn -0.9192 0.3938 0.0000
vn -0.8618 0.4920 0.1230
vn -0.0351 0.9955 -0.0878
vn -0.9787 0.1525 -0.1372
vn -0.6683 0.3327 -0.6653
vn -0.0879 0.9923 -0.0875
vn -0.7942 0.6069 -0.0311
vn 0.9806 0.1958 0.0000
vn 0.8339 0.5511 -0.0296
vn 0.9428 0.3319 0.0312
vn -0.2645 0.8784 0.3980
vn 0.1322 0.9081 0.3973
usemtl Shape
s off
f 83//112 91//112 96//112
f 67//113 66//113 71//113
f 65//114 72//114 73//114
f 65//115 68//115 74//115
f 65//115 74//115 75//115
f 69//116 70//116 76//116
f 66//117 67//117 77//117
f 66//117 77//117 78//117
f 68//118 65//118 80//118
f 65//114 73//114 80//114
f 72//114 65//114 81//114
f 74//119 69//119 82//119
f 75//115 74//115 82//115
f 79//120 75//120 82//120
f 77//121 70//121 83//121
f 70//116 69//116 84//116
f 69//122 74//122 84//122
f 71//123 66//123 85//123
f 66//124 78//124 85//124
f 78//125 72//125 85//125
f 72//126 81//126 85//126
f 68//127 80//127 86//127
f 80//128 73//128 86//128
f 65//129 75//129 87//129
f 75//130 79//130 87//130
f 81//114 65//114 87//114
f 69//116 76//116 88//116
f 71//131 79//131 88//131
f 82//132 69//132 88//132
f 79//133 82//133 88//133
f 79//134 71//134 89//134
f 71//135 85//135 89//135
f 85//136 81//136 89//136
f 87//137 79//137 89//137
f 81//138 87//138 89//138
f 74//139 68//139 90//139
f 83//140 70//140 90//140
f 70//141 84//141 90//141
f 84//142 74//142 90//142
f 68//143 86//143 90//143
f 86//144 83//144 90//144
f 73//145 78//145 91//145
f 86//146 73//146 91//146
f 83//147 86//147 91//147
f 76//116 70//116 92//116
f 77//148 76//148 92//148
f 70//149 77//149 92//149
f 67//150 71//150 93//150
f 76//148 77//148 93//148
f 77//117 67//117 93//117
f 88//151 76//151 94//151
f 71//152 88//152 94//152
f 93//153 71//153 94//153
f 76//154 93//154 94//154
f 73//155 72//155 95//155
f 72//156 78//156 95//156
f 78//157 73//157 95//157
f 78//117 77//117 96//117
f 77//158 83//158 96//158
f 91//159 78//159 96//159
