# Blender v2.76 (sub 0) OBJ File: 'target_collision_hull.blend'
# www.blender.org
mtllib target_collision_hull.mtl
o Target_2_ACD
v 0.234438 0.000000 0.000000
v 0.009411 0.053966 0.014463
v 0.017694 0.122305 0.000663
v 0.009411 0.122305 0.000663
v 0.009411 0.076058 -0.030398
v 0.017694 0.053972 -0.008312
v 0.017694 0.089859 0.037941
v 0.017694 0.098827 -0.030398
v 0.009411 0.100212 0.035867
v 0.017694 0.067090 0.031724
v 0.009411 0.107795 -0.025566
v 0.017694 0.116088 0.023438
v 0.009411 0.076058 0.036556
v 0.009411 0.053966 -0.008306
v 0.017694 0.067083 -0.025566
v 0.017694 0.116088 -0.017281
v 0.009411 0.120920 0.014463
v 0.017694 0.053966 0.014463
v 0.009411 0.058798 0.023438
v 0.009411 0.058798 -0.017281
v 0.009411 0.120920 -0.008306
v 0.009411 0.089859 -0.031784
v 0.017694 0.085033 -0.031784
v 0.017694 0.107795 0.031724
v 0.009411 0.116088 0.023438
v 0.017694 0.052580 0.000663
v 0.017694 0.076058 0.036556
v 0.017694 0.120920 0.014463
v 0.009411 0.085027 0.037941
v 0.009411 0.052580 0.005495
v 0.017694 0.058798 0.023438
v 0.009411 0.116088 -0.017281
v 0.017694 0.107802 -0.025566
vn 0.000000 0.707100 -0.707100
vn -1.000000 0.000000 0.000000
vn 1.000000 0.000000 0.000000
vn 0.000000 0.995000 0.099900
vn -0.187300 -0.594400 0.782100
vn 0.000000 -0.880500 0.474000
vn 0.000300 -0.880500 -0.474000
vn 0.187800 -0.782000 -0.594300
vn -0.187800 -0.594300 -0.782000
vn 0.000000 0.988300 -0.152600
vn 0.192800 0.927200 -0.321200
vn -0.192900 0.321400 -0.927100
vn 0.192900 -0.321200 -0.927200
vn -0.058100 -0.099800 -0.993300
vn 0.058200 0.099800 -0.993300
vn 0.170200 0.322700 0.931100
vn 0.000000 0.706800 0.707400
vn 0.000000 0.880500 0.474000
vn -0.168100 0.607700 0.776200
vn 0.000600 -0.988200 -0.153300
vn 0.000000 -0.474300 0.880300
vn -0.078700 0.134900 0.987700
vn 0.058200 -0.099700 0.993300
vn 0.000000 -0.152600 0.988300
vn 0.000000 -0.988300 0.152700
vn -0.058200 -0.993300 -0.099800
vn 0.058200 -0.993300 0.099800
vn 0.000000 -0.706900 0.707400
vn 0.000000 0.880500 -0.474000
vn -0.000400 0.474000 -0.880500
vn -0.000600 0.706800 -0.707400
usemtl Shape
s off
f 32//1 16//1 33//1
f 2//2 4//2 5//2
f 6//3 3//3 7//3
f 3//3 6//3 8//3
f 4//2 2//2 9//2
f 6//3 7//3 10//3
f 5//2 4//2 11//2
f 7//3 3//3 12//3
f 9//2 2//2 13//2
f 2//2 5//2 14//2
f 8//3 6//3 15//3
f 3//3 8//3 16//3
f 3//4 4//4 17//4
f 4//2 9//2 17//2
f 6//3 10//3 18//3
f 13//2 2//2 19//2
f 10//5 13//5 19//5
f 2//6 18//6 19//6
f 14//2 5//2 20//2
f 6//7 14//7 20//7
f 15//8 6//8 20//8
f 5//9 15//9 20//9
f 4//10 3//10 21//10
f 11//2 4//2 21//2
f 3//11 16//11 21//11
f 5//2 11//2 22//2
f 11//12 8//12 22//12
f 15//13 5//13 23//13
f 8//3 15//3 23//3
f 5//14 22//14 23//14
f 22//15 8//15 23//15
f 9//16 7//16 24//16
f 7//3 12//3 24//3
f 24//17 12//17 25//17
f 17//2 9//2 25//2
f 12//18 17//18 25//18
f 9//19 24//19 25//19
f 14//20 6//20 26//20
f 6//3 18//3 26//3
f 10//3 7//3 27//3
f 13//21 10//21 27//21
f 12//3 3//3 28//3
f 3//4 17//4 28//4
f 17//18 12//18 28//18
f 7//22 9//22 29//22
f 9//2 13//2 29//2
f 27//23 7//23 29//23
f 13//24 27//24 29//24
f 2//2 14//2 30//2
f 18//25 2//25 30//25
f 14//26 26//26 30//26
f 26//27 18//27 30//27
f 18//3 10//3 31//3
f 10//28 19//28 31//28
f 19//6 18//6 31//6
f 11//2 21//2 32//2
f 21//29 16//29 32//29
f 8//30 11//30 33//30
f 16//3 8//3 33//3
f 11//31 32//31 33//31
