# Blender v2.79 (sub 0) OBJ File: 'Treehouse-2.blend'
# www.blender.org
mtllib Cabana-2-COLL.mtl
o Cube.010_Cube.011
v -32.357288 17.633701 -2.642909
v -32.357288 18.179390 -2.642909
v -32.357288 17.633701 -7.712060
v -32.357288 18.179390 -7.712060
v -32.100128 18.179390 -2.642909
v -32.100128 17.633701 -2.642909
v -32.100128 17.633701 -7.712060
v -32.100128 18.179390 -7.712060
vt 0.000000 0.000000
vt 0.000000 0.000000
vt 0.000000 0.000000
vt 0.000000 0.000000
vt 0.000000 0.000000
vt 0.000000 0.000000
vt 0.000000 0.000000
vt 0.000000 0.000000
vn -1.0000 0.0000 0.0000
vn 1.0000 0.0000 0.0000
vn 0.0000 0.0000 -1.0000
vn 0.0000 -1.0000 0.0000
vn 0.0000 1.0000 0.0000
vn 0.0000 -0.0000 1.0000
usemtl None
s off
f 1/1/1 2/2/1 4/3/1 3/4/1
f 6/5/2 7/6/2 8/7/2 5/8/2
f 4/3/3 8/7/3 7/6/3 3/4/3
f 3/4/4 7/6/4 6/5/4 1/1/4
f 2/2/5 5/8/5 8/7/5 4/3/5
f 1/1/6 6/5/6 5/8/6 2/2/6
o Cube.009_Cube.010
v -38.161434 17.633701 -2.709188
v -38.161434 18.179390 -2.709187
v -32.193462 17.633701 -2.709188
v -32.193462 18.179390 -2.709187
v -38.161434 18.179390 -2.452028
v -38.161434 17.633701 -2.452028
v -32.193462 17.633701 -2.452028
v -32.193462 18.179390 -2.452028
vt 0.000000 0.000000
vt 0.000000 0.000000
vt 0.000000 0.000000
vt 0.000000 0.000000
vt 0.000000 0.000000
vt 0.000000 0.000000
vt 0.000000 0.000000
vt 0.000000 0.000000
vn 0.0000 0.0000 -1.0000
vn 0.0000 0.0000 1.0000
vn 1.0000 0.0000 0.0000
vn 0.0000 -1.0000 0.0000
vn 0.0000 1.0000 0.0000
vn -1.0000 0.0000 0.0000
usemtl None
s off
f 9/9/7 10/10/7 12/11/7 11/12/7
f 14/13/8 15/14/8 16/15/8 13/16/8
f 12/11/9 16/15/9 15/14/9 11/12/9
f 11/12/10 15/14/10 14/13/10 9/9/10
f 10/10/11 13/16/11 16/15/11 12/11/11
f 9/9/12 14/13/12 13/16/12 10/10/12
o Cube.008_Cube.009
v -38.161434 17.633701 -10.407765
v -38.161434 18.179390 -10.407765
v -32.193462 17.633701 -10.407765
v -32.193462 18.179390 -10.407765
v -38.161434 18.179390 -10.150606
v -38.161434 17.633701 -10.150606
v -32.193462 17.633701 -10.150606
v -32.193462 18.179390 -10.150606
vt 0.000000 0.000000
vt 0.000000 0.000000
vt 0.000000 0.000000
vt 0.000000 0.000000
vt 0.000000 0.000000
vt 0.000000 0.000000
vt 0.000000 0.000000
vt 0.000000 0.000000
vn 0.0000 0.0000 -1.0000
vn 0.0000 0.0000 1.0000
vn 1.0000 0.0000 0.0000
vn 0.0000 -1.0000 0.0000
vn 0.0000 1.0000 0.0000
vn -1.0000 0.0000 0.0000
usemtl None
s off
f 17/17/13 18/18/13 20/19/13 19/20/13
f 22/21/14 23/22/14 24/23/14 21/24/14
f 20/19/15 24/23/15 23/22/15 19/20/15
f 19/20/16 23/22/16 22/21/16 17/17/16
f 18/18/17 21/24/17 24/23/17 20/19/17
f 17/17/18 22/21/18 21/24/18 18/18/18
o Cube.007_Cube.008
v -32.357288 13.684075 -2.642909
v -32.357288 15.452098 -2.642909
v -32.357288 13.684075 -7.712060
v -32.357288 15.452098 -7.712060
v -32.100128 15.452098 -2.642909
v -32.100132 13.684075 -2.642909
v -32.100132 13.684075 -7.712060
v -32.100132 15.452098 -7.712060
vt 0.000000 0.000000
vt 0.000000 0.000000
vt 0.000000 0.000000
vt 0.000000 0.000000
vt 0.000000 0.000000
vt 0.000000 0.000000
vt 0.000000 0.000000
vt 0.000000 0.000000
vn -1.0000 0.0000 0.0000
vn 1.0000 -0.0000 -0.0000
vn 0.0000 0.0000 -1.0000
vn 0.0000 -1.0000 0.0000
vn 0.0000 1.0000 0.0000
vn 0.0000 0.0000 1.0000
usemtl None
s off
f 25/25/19 26/26/19 28/27/19 27/28/19
f 30/29/20 31/30/20 32/31/20 29/32/20
f 28/27/21 32/31/21 31/30/21 27/28/21
f 27/28/22 31/30/22 30/29/22 25/25/22
f 26/26/23 29/32/23 32/31/23 28/27/23
f 25/25/24 30/29/24 29/32/24 26/26/24
o Cube.006_Cube.007
v -38.161438 13.684074 -2.709188
v -38.161434 15.452098 -2.709188
v -32.193466 13.684074 -2.709188
v -32.193462 15.452098 -2.709188
v -38.161434 15.452098 -2.452028
v -38.161438 13.684074 -2.452028
v -32.193466 13.684074 -2.452028
v -32.193462 15.452098 -2.452028
vt 0.000000 0.000000
vt 0.000000 0.000000
vt 0.000000 0.000000
vt 0.000000 0.000000
vt 0.000000 0.000000
vt 0.000000 0.000000
vt 0.000000 0.000000
vt 0.000000 0.000000
vn 0.0000 0.0000 -1.0000
vn 0.0000 0.0000 1.0000
vn 1.0000 -0.0000 0.0000
vn 0.0000 -1.0000 0.0000
vn 0.0000 1.0000 0.0000
vn -1.0000 0.0000 0.0000
usemtl None
s off
f 33/33/25 34/34/25 36/35/25 35/36/25
f 38/37/26 39/38/26 40/39/26 37/40/26
f 36/35/27 40/39/27 39/38/27 35/36/27
f 35/36/28 39/38/28 38/37/28 33/33/28
f 34/34/29 37/40/29 40/39/29 36/35/29
f 33/33/30 38/37/30 37/40/30 34/34/30
o Cube.005_Cube.006
v -38.161438 13.684074 -10.407765
v -38.161434 15.452098 -10.407765
v -32.193466 13.684074 -10.407765
v -32.193462 15.452098 -10.407765
v -38.161434 15.452098 -10.150606
v -38.161438 13.684074 -10.150606
v -32.193466 13.684074 -10.150606
v -32.193462 15.452098 -10.150606
vt 0.000000 0.000000
vt 0.000000 0.000000
vt 0.000000 0.000000
vt 0.000000 0.000000
vt 0.000000 0.000000
vt 0.000000 0.000000
vt 0.000000 0.000000
vt 0.000000 0.000000
vn 0.0000 0.0000 -1.0000
vn 0.0000 0.0000 1.0000
vn 1.0000 -0.0000 0.0000
vn 0.0000 -1.0000 0.0000
vn 0.0000 1.0000 0.0000
vn -1.0000 0.0000 0.0000
usemtl None
s off
f 41/41/31 42/42/31 44/43/31 43/44/31
f 46/45/32 47/46/32 48/47/32 45/48/32
f 44/43/33 48/47/33 47/46/33 43/44/33
f 43/44/34 47/46/34 46/45/34 41/41/34
f 42/42/35 45/48/35 48/47/35 44/43/35
f 41/41/36 46/45/36 45/48/36 42/42/36
o Cube.004_Cube.005
v -39.640717 13.684074 -2.456460
v -39.640717 14.015610 -2.456460
v -39.640717 13.684074 -10.276089
v -39.640717 14.015610 -10.276089
v -32.193466 13.684074 -2.456460
v -32.193466 14.015610 -2.456460
v -32.193466 13.684074 -10.276089
v -32.193466 14.015610 -10.276089
vt 0.000000 0.000000
vt 0.000000 0.000000
vt 0.000000 0.000000
vt 0.000000 0.000000
vt 0.000000 0.000000
vt 0.000000 0.000000
vt 0.000000 0.000000
vt 0.000000 0.000000
vn -1.0000 0.0000 0.0000
vn 0.0000 0.0000 -1.0000
vn 1.0000 0.0000 0.0000
vn 0.0000 0.0000 1.0000
vn 0.0000 -1.0000 0.0000
vn 0.0000 1.0000 0.0000
usemtl None
s off
f 49/49/37 50/50/37 52/51/37 51/52/37
f 51/52/38 52/51/38 56/53/38 55/54/38
f 55/54/39 56/53/39 54/55/39 53/56/39
f 53/56/40 54/55/40 50/50/40 49/49/40
f 51/52/41 55/54/41 53/56/41 49/49/41
f 56/53/42 52/51/42 50/50/42 54/55/42
o Cube.000_Cube.002
v -32.226509 13.684074 -7.185995
v -32.226509 14.015610 -7.185995
v -32.226509 13.684074 -10.276089
v -32.226509 14.015610 -10.276089
v -30.114672 13.684074 -7.638693
v -30.114672 14.015610 -7.638693
v -30.157785 13.684074 -10.759352
v -30.157785 14.015610 -10.759352
vt 0.000000 0.000000
vt 0.000000 0.000000
vt 0.000000 0.000000
vt 0.000000 0.000000
vt 0.000000 0.000000
vt 0.000000 0.000000
vt 0.000000 0.000000
vt 0.000000 0.000000
vn -1.0000 0.0000 0.0000
vn -0.2275 0.0000 -0.9738
vn 0.9999 0.0000 -0.0138
vn 0.2096 0.0000 0.9778
vn 0.0000 -1.0000 0.0000
vn 0.0000 1.0000 0.0000
usemtl None
s off
f 57/57/43 58/58/43 60/59/43 59/60/43
f 59/60/44 60/59/44 64/61/44 63/62/44
f 63/62/45 64/61/45 62/63/45 61/64/45
f 61/64/46 62/63/46 58/58/46 57/57/46
f 59/60/47 63/62/47 61/64/47 57/57/47
f 64/61/48 60/59/48 58/58/48 62/63/48
