# Blender v2.79 (sub 0) OBJ File: 'Courtyard.blend'
# www.blender.org
mtllib Courtyard-COLL.mtl
o Courtyard-COLL.013_Cylinder.016
v -10.992809 4.792650 0.876936
v -10.992809 7.253695 0.876936
v -6.371166 4.792650 2.559077
v -6.371166 7.253695 2.559077
v -3.912041 4.792650 6.818407
v -3.912041 7.253695 6.818407
v -4.766087 4.792650 11.661937
v -4.766087 7.253695 11.661937
v -8.533686 4.792650 14.823327
v -8.533686 7.253695 14.823327
v -13.451936 4.792650 14.823326
v -13.451936 7.253695 14.823326
v -17.219532 4.792650 11.661936
v -17.219532 7.253695 11.661936
v -18.073578 4.792650 6.818406
v -18.073578 7.253695 6.818406
v -15.614453 4.792650 2.559078
v -15.614453 7.253695 2.559078
vt 0.000000 0.000000
vt 0.000000 0.000000
vt 0.000000 0.000000
vt 0.000000 0.000000
vt 0.000000 0.000000
vt 0.000000 0.000000
vt 0.000000 0.000000
vt 0.000000 0.000000
vt 0.000000 0.000000
vt 0.000000 0.000000
vt 0.000000 0.000000
vt 0.000000 0.000000
vt 0.000000 0.000000
vt 0.000000 0.000000
vt 0.000000 0.000000
vt 0.000000 0.000000
vt 0.000000 0.000000
vt 0.000000 0.000000
vn 0.3420 0.0000 -0.9397
vn 0.8660 0.0000 -0.5000
vn 0.9848 0.0000 0.1736
vn 0.6428 0.0000 0.7660
vn -0.0000 0.0000 1.0000
vn -0.6428 0.0000 0.7660
vn -0.9848 0.0000 0.1736
vn 0.0000 1.0000 -0.0000
vn -0.8660 0.0000 -0.5000
vn -0.3420 0.0000 -0.9397
vn 0.0000 -1.0000 -0.0000
usemtl None
s off
f 1/1/1 2/2/1 4/3/1 3/4/1
f 3/4/2 4/3/2 6/5/2 5/6/2
f 5/6/3 6/5/3 8/7/3 7/8/3
f 7/8/4 8/7/4 10/9/4 9/10/4
f 9/10/5 10/9/5 12/11/5 11/12/5
f 11/12/6 12/11/6 14/13/6 13/14/6
f 13/14/7 14/13/7 16/15/7 15/16/7
f 4/3/8 2/2/8 18/17/8 16/15/8 14/13/8 12/11/8 10/9/8 8/7/8 6/5/8
f 15/16/9 16/15/9 18/17/9 17/18/9
f 17/18/10 18/17/10 2/2/10 1/1/10
f 1/1/11 3/4/11 5/6/11 7/8/11 9/10/11 11/12/11 13/14/11 15/16/11 17/18/11
o Courtyard-COLL.012_Cylinder.015
v -3.899198 7.253831 -0.455453
v -6.375637 7.253831 -2.031389
v -10.992809 7.253831 8.066936
v -10.992809 4.805831 8.066936
v -6.375637 4.805831 -2.031389
v -3.899198 4.805831 -0.455453
vt 0.000000 0.000000
vt 0.000000 0.000000
vt 0.000000 0.000000
vt 0.000000 0.000000
vt 0.000000 0.000000
vt 0.000000 0.000000
vn 0.0000 1.0000 0.0000
vn 0.0000 -1.0000 -0.0000
vn -0.9094 0.0000 -0.4158
vn 0.5369 0.0000 -0.8437
vn 0.7686 0.0000 0.6397
usemtl None
s off
f 21/19/12 19/20/12 20/21/12
f 22/22/13 23/23/13 24/24/13
f 21/19/14 20/21/14 23/23/14 22/22/14
f 20/21/15 19/20/15 24/24/15 23/23/15
f 19/20/16 21/19/16 22/22/16 24/24/16
o Courtyard-COLL.011_Cylinder.014
v -19.144405 7.253831 11.828388
v -19.970242 7.253831 8.758476
v -10.992809 7.253831 8.066936
v -10.992809 4.805831 8.066936
v -19.144405 4.805831 11.828388
v -19.970242 4.805831 8.758476
vt 0.000000 0.000000
vt 0.000000 0.000000
vt 0.000000 0.000000
vt 0.000000 0.000000
vt 0.000000 0.000000
vt 0.000000 0.000000
vn 0.0000 1.0000 -0.0000
vn 0.0000 -1.0000 0.0000
vn -0.0768 0.0000 -0.9970
vn 0.4190 0.0000 0.9080
vn -0.9657 0.0000 0.2598
usemtl None
s off
f 27/25/17 26/26/17 25/27/17
f 28/28/18 29/29/18 30/30/18
f 26/26/19 27/25/19 28/28/19 30/30/19
f 27/25/20 25/27/20 29/29/20 28/28/20
f 25/27/21 26/26/21 30/30/21 29/29/21
o Courtyard-COLL.010_Cylinder.013
v -19.544178 7.253831 15.290894
v -20.954277 7.253831 12.655511
v -10.992809 7.253831 8.066936
v -10.992809 4.805831 8.066936
v -19.544178 4.805831 15.290894
v -20.954277 4.805831 12.655511
vt 0.000000 0.000000
vt 0.000000 0.000000
vt 0.000000 0.000000
vt 0.000000 0.000000
vt 0.000000 0.000000
vt 0.000000 0.000000
vn 0.0000 1.0000 0.0000
vn 0.0000 -1.0000 -0.0000
vn -0.4184 0.0000 -0.9083
vn 0.6453 0.0000 0.7639
vn -0.8817 0.0000 0.4718
usemtl None
s off
f 33/31/22 32/32/22 31/33/22
f 34/34/23 35/35/23 36/36/23
f 32/32/24 33/31/24 34/34/24 36/36/24
f 33/31/25 31/33/25 35/35/25 34/34/25
f 31/33/26 32/32/26 36/36/26 35/35/26
o Courtyard-COLL.009_Cylinder.012
v -18.496271 7.253831 19.036083
v -20.881664 7.253831 16.318274
v -10.992809 7.253831 8.066936
v -10.992809 4.805830 8.066936
v -18.496271 4.805830 19.036083
v -20.881664 4.805830 16.318274
vt 0.000000 0.000000
vt 0.000000 0.000000
vt 0.000000 0.000000
vt 0.000000 0.000000
vt 0.000000 0.000000
vt 0.000000 0.000000
vn 0.0000 1.0000 -0.0000
vn 0.0000 -1.0000 -0.0000
vn -0.6407 0.0000 -0.7678
vn 0.8254 0.0000 0.5646
vn -0.7516 0.0000 0.6596
usemtl None
s off
f 39/37/27 38/38/27 37/39/27
f 40/40/28 41/41/28 42/42/28
f 38/38/29 39/37/29 40/40/29 42/42/29
f 39/37/30 37/39/30 41/41/30 40/40/30
f 37/39/31 38/38/31 42/42/31 41/41/31
o Courtyard-COLL.008_Cylinder.011
v -14.347460 7.253831 20.953680
v -18.496271 7.253831 19.036083
v -10.992809 7.253831 8.066936
v -10.992809 4.805831 8.066936
v -14.347460 4.805831 20.953680
v -18.496271 4.805831 19.036083
vt 0.000000 0.000000
vt 0.000000 0.000000
vt 0.000000 0.000000
vt 0.000000 0.000000
vt 0.000000 0.000000
vt 0.000000 0.000000
vn 0.0000 1.0000 0.0000
vn 0.0000 -1.0000 0.0000
vn -0.8254 0.0000 -0.5646
vn 0.9677 0.0000 0.2519
vn -0.4196 0.0000 0.9077
usemtl None
s off
f 45/43/32 44/44/32 43/45/32
f 46/46/33 47/47/33 48/48/33
f 44/44/34 45/43/34 46/46/34 48/48/34
f 45/43/35 43/45/35 47/47/35 46/46/35
f 43/45/36 44/44/36 48/48/36 47/47/36
o Courtyard-COLL.007_Cylinder.010
v -7.295013 7.253831 20.954823
v -14.347460 7.253831 20.953680
v -10.992809 7.253831 8.066936
v -10.992809 4.805831 8.066936
v -7.295013 4.805831 20.954823
v -14.347460 4.805831 20.953680
vt 0.000000 0.000000
vt 0.000000 0.000000
vt 0.000000 0.000000
vt 0.000000 0.000000
vt 0.000000 0.000000
vt 0.000000 0.000000
vn 0.0000 1.0000 0.0000
vn 0.0000 -1.0000 -0.0000
vn 0.9612 0.0000 -0.2758
vn -0.9677 0.0000 -0.2519
vn -0.0002 0.0000 1.0000
usemtl None
s off
f 51/49/37 50/50/37 49/51/37
f 52/52/38 53/53/38 54/54/38
f 51/49/39 49/51/39 53/53/39 52/52/39
f 50/50/40 51/49/40 52/52/40 54/54/40
f 49/51/41 50/50/41 54/54/41 53/53/41
o Courtyard-COLL.006_Cylinder.009
v -1.008083 7.253831 16.837875
v -7.295013 7.253831 20.954823
v -10.992809 7.253831 8.066936
v -10.992809 4.805831 8.066936
v -1.008083 4.805831 16.837875
v -7.295013 4.805831 20.954823
vt 0.000000 0.000000
vt 0.000000 0.000000
vt 0.000000 0.000000
vt 0.000000 0.000000
vt 0.000000 0.000000
vt 0.000000 0.000000
vn 0.0000 1.0000 -0.0000
vn 0.0000 -1.0000 0.0000
vn 0.6600 0.0000 -0.7513
vn -0.9612 0.0000 0.2758
vn 0.5478 0.0000 0.8366
usemtl None
s off
f 57/55/42 56/56/42 55/57/42
f 58/58/43 59/59/43 60/60/43
f 57/55/44 55/57/44 59/59/44 58/58/44
f 56/56/45 57/55/45 58/58/45 60/60/45
f 55/57/46 56/56/46 60/60/46 59/59/46
o Courtyard-COLL.005_Cylinder.008
v 1.924284 7.253831 11.193083
v -1.008083 7.253831 16.837875
v -10.992809 7.253831 8.066936
v -10.992809 4.805831 8.066936
v 1.924284 4.805831 11.193083
v -1.008083 4.805831 16.837875
vt 0.000000 0.000000
vt 0.000000 0.000000
vt 0.000000 0.000000
vt 0.000000 0.000000
vt 0.000000 0.000000
vt 0.000000 0.000000
vn 0.0000 1.0000 0.0000
vn 0.0000 -1.0000 0.0000
vn 0.2352 0.0000 -0.9719
vn 0.8874 0.0000 0.4610
vn -0.6600 0.0000 0.7513
usemtl None
s off
f 63/61/47 62/62/47 61/63/47
f 64/64/48 65/65/48 66/66/48
f 63/61/49 61/63/49 65/65/49 64/64/49
f 61/63/50 62/62/50 66/66/50 65/65/50
f 62/62/51 63/61/51 64/64/51 66/66/51
o Courtyard-COLL.004_Cylinder.007
v 1.897501 7.253831 4.832130
v 1.924284 7.253831 11.193083
v -10.992809 7.253831 8.066936
v -10.992809 4.805831 8.066936
v 1.897501 4.805831 4.832130
v 1.924284 4.805831 11.193083
vt 0.000000 0.000000
vt 0.000000 0.000000
vt 0.000000 0.000000
vt 0.000000 0.000000
vt 0.000000 0.000000
vt 0.000000 0.000000
vn 0.0000 1.0000 -0.0000
vn 0.0000 -1.0000 0.0000
vn -0.2434 0.0000 -0.9699
vn 1.0000 0.0000 -0.0042
vn -0.2352 0.0000 0.9719
usemtl None
s off
f 69/67/52 68/68/52 67/69/52
f 70/70/53 71/71/53 72/72/53
f 69/67/54 67/69/54 71/71/54 70/70/54
f 67/69/55 68/68/55 72/72/55 71/71/55
f 68/68/56 69/67/56 70/70/56 72/72/56
o Courtyard-COLL.003_Cylinder.006
v -0.155925 7.253831 0.715014
v 1.897501 7.253831 4.832130
v -10.992809 7.253831 8.066936
v -10.992809 4.805831 8.066936
v -0.155925 4.805831 0.715014
v 1.897501 4.805831 4.832130
vt 0.000000 0.000000
vt 0.000000 0.000000
vt 0.000000 0.000000
vt 0.000000 0.000000
vt 0.000000 0.000000
vt 0.000000 0.000000
vn 0.0000 1.0000 0.0000
vn 0.0000 -1.0000 -0.0000
vn -0.5614 0.0000 -0.8275
vn 0.8949 0.0000 -0.4463
vn 0.2434 0.0000 0.9699
usemtl None
s off
f 75/73/57 74/74/57 73/75/57
f 76/76/58 77/77/58 78/78/58
f 75/73/59 73/75/59 77/77/59 76/76/59
f 73/75/60 74/74/60 78/78/60 77/77/60
f 74/74/61 75/73/61 76/76/61 78/78/61
o Courtyard-COLL.002_Cylinder.005
v -2.688736 7.253831 -1.888245
v -0.155925 7.253831 0.715014
v -10.992809 7.253831 8.066936
v -10.992809 4.805831 8.066936
v -2.688736 4.805831 -1.888245
v -0.155925 4.805831 0.715014
vt 0.000000 0.000000
vt 0.000000 0.000000
vt 0.000000 0.000000
vt 0.000000 0.000000
vt 0.000000 0.000000
vt 0.000000 0.000000
vn 0.0000 1.0000 0.0000
vn 0.0000 -1.0000 -0.0000
vn -0.7679 0.0000 -0.6406
vn 0.7167 0.0000 -0.6973
vn 0.5614 0.0000 0.8275
usemtl None
s off
f 81/79/62 80/80/62 79/81/62
f 82/82/63 83/83/63 84/84/63
f 81/79/64 79/81/64 83/83/64 82/82/64
f 79/81/65 80/80/65 84/84/65 83/83/65
f 80/80/66 81/79/66 82/82/66 84/84/66
o Courtyard-COLL.001_Cylinder.004
v -10.992809 7.253831 8.066936
v -7.141439 7.253831 -0.228048
v -11.053862 7.253831 -1.134110
v -10.992809 4.805831 8.066936
v -11.053862 4.805831 -1.134110
v -7.141439 4.805831 -0.228048
vt 0.000000 0.000000
vt 0.000000 0.000000
vt 0.000000 0.000000
vt 0.000000 0.000000
vt 0.000000 0.000000
vt 0.000000 0.000000
vn 0.0000 1.0000 0.0000
vn 0.0000 -1.0000 0.0000
vn 0.2256 0.0000 -0.9742
vn 0.9070 0.0000 0.4211
vn -1.0000 0.0000 0.0066
usemtl None
s off
f 85/85/67 86/86/67 87/87/67
f 88/88/68 89/89/68 90/90/68
f 87/87/69 86/86/69 90/90/69 89/89/69
f 86/86/70 85/85/70 88/88/70 90/90/70
f 85/85/71 87/87/71 89/89/71 88/88/71
o Courtyard-COLL_Cylinder.002
v -17.925440 7.296894 6.935778
v -17.904034 7.296894 6.828420
v -17.925440 7.242337 6.935778
v -17.904034 7.242337 6.828420
v -17.895111 7.296894 6.830200
v -17.916517 7.296894 6.937557
v -17.895111 7.242337 6.830200
v -17.916517 7.242337 6.937557
vt 0.708954 0.622447
vt 0.712397 0.622447
vt 0.712397 0.634693
vt 0.708954 0.634692
vt 0.708954 0.622447
vt 0.708954 0.634692
vt 0.712397 0.634693
vt 0.712397 0.622447
vn -0.4533 -0.5773 -0.6791
vn -0.6791 -0.5773 0.4533
vn -0.6791 0.5773 0.4533
vn -0.4533 0.5773 -0.6791
vn 0.6791 -0.5773 -0.4533
vn 0.6791 0.5773 -0.4533
vn 0.4533 0.5773 0.6791
vn 0.4533 -0.5773 0.6791
usemtl None
s 1
f 94/91/72 93/92/73 91/93/74 92/94/75
f 97/95/76 95/96/77 96/97/78 98/98/79
f 91/93/74 96/97/78 95/96/77 92/94/75
f 92/94/75 95/96/77 97/95/76 94/91/72
f 94/91/72 97/95/76 98/98/79 93/92/73
f 93/92/73 98/98/79 96/97/78 91/93/74
